<svg xmlns="http://www.w3.org/2000/svg" version="1.1" xmlns:xlink="http://www.w3.org/1999/xlink" xmlns:svgjs="http://svgjs.dev/svgjs" width="31" height="20"><svg width="31" height="20" viewBox="0 0 31 20" fill="none" xmlns="http://www.w3.org/2000/svg">
<rect y="1" width="31" height="16" fill="#FFC14D"></rect>
<path d="M11.7648 12.6094C11.7648 12.8711 11.7316 13.1055 11.6652 13.3125C11.5988 13.5234 11.5109 13.707 11.4015 13.8633C11.2921 14.0234 11.1652 14.1582 11.0206 14.2676C10.8761 14.3809 10.7238 14.4727 10.5636 14.543C10.4073 14.6133 10.2472 14.6641 10.0831 14.6953C9.92297 14.7305 9.77063 14.748 9.62609 14.748H6.87805V13.2246H9.62609C9.83313 13.2246 9.98742 13.1719 10.089 13.0664C10.1905 12.9609 10.2413 12.8086 10.2413 12.6094V7.79883C10.2413 7.59961 10.1905 7.44922 10.089 7.34766C9.98742 7.24219 9.83313 7.18945 9.62609 7.18945H6.87805C6.69055 7.18945 6.54211 7.24805 6.43273 7.36523C6.32336 7.47852 6.26867 7.62305 6.26867 7.79883V9.86133C6.26867 10.0605 6.32141 10.2129 6.42688 10.3184C6.53234 10.4238 6.68664 10.4766 6.88977 10.4766H9.62609V12H6.87805C6.73352 12 6.58117 11.9844 6.42102 11.9531C6.26086 11.918 6.1007 11.8652 5.94055 11.7949C5.7843 11.7246 5.63391 11.6348 5.48938 11.5254C5.34484 11.4121 5.21789 11.2773 5.10852 11.1211C4.99914 10.9609 4.91125 10.7773 4.84484 10.5703C4.77844 10.3594 4.74523 10.123 4.74523 9.86133V7.79883C4.74523 7.6543 4.76086 7.50195 4.79211 7.3418C4.82727 7.18164 4.88 7.02344 4.95031 6.86719C5.02063 6.70703 5.11047 6.55469 5.21984 6.41016C5.33313 6.26562 5.46789 6.13867 5.62414 6.0293C5.7843 5.91992 5.96789 5.83203 6.17492 5.76562C6.38195 5.69922 6.61633 5.66602 6.87805 5.66602H9.62609C9.77063 5.66602 9.92297 5.68359 10.0831 5.71875C10.2472 5.75 10.4073 5.80078 10.5636 5.87109C10.7238 5.94141 10.8761 6.0332 11.0206 6.14648C11.1652 6.25586 11.2921 6.39062 11.4015 6.55078C11.5109 6.70703 11.5988 6.88867 11.6652 7.0957C11.7316 7.30273 11.7648 7.53711 11.7648 7.79883V12.6094ZM19.4141 12H15.2832C15.0723 12 14.8418 11.9629 14.5918 11.8887C14.3418 11.8145 14.1094 11.6934 13.8945 11.5254C13.6836 11.3535 13.5059 11.1328 13.3613 10.8633C13.2207 10.5898 13.1504 10.2559 13.1504 9.86133V7.79883C13.1504 7.6543 13.166 7.50195 13.1973 7.3418C13.2324 7.18164 13.2852 7.02344 13.3555 6.86719C13.4258 6.70703 13.5156 6.55469 13.625 6.41016C13.7383 6.26562 13.873 6.13867 14.0293 6.0293C14.1895 5.91992 14.373 5.83203 14.5801 5.76562C14.7871 5.69922 15.0215 5.66602 15.2832 5.66602H19.4141V7.18945H15.2832C15.084 7.18945 14.9316 7.24023 14.8262 7.3418C14.7246 7.44336 14.6738 7.59961 14.6738 7.81055V9.86133C14.6738 10.0605 14.7266 10.2129 14.832 10.3184C14.9375 10.4238 15.0918 10.4766 15.2949 10.4766H19.4141V12ZM26.5536 7.18945H23.8934V12H22.3524V7.18945H20.372V5.66602H22.3524V3.59766H23.8934V5.66602H26.5536V7.18945Z" fill="black"></path>
</svg><style>@media (prefers-color-scheme: light) { :root { filter: none; } }
@media (prefers-color-scheme: dark) { :root { filter: none; } }
</style></svg>